# xmcd CD database file
#
# Track frame offsets:
#	150
#	13030
#	27457
#	41257
#	52440
#	65190
#	76210
#	89320
#	97887
#	107972
#
# Disc length: 1650 seconds
#
# Revision: 0
# Processed by: cddbd v1.4PL0 Copyright (c) Steve Scherf et al.
# Submitted via: CdAid (MTCDDB.DLL V2003.07.15)
#
DISCID=8206700a
DTITLE=Penny Gilley - One For All
DYEAR=1997
DGENRE=Country
TTITLE0=Get On Down The Road
TTITLE1=Coal Miners Daughter
TTITLE2=Pledging My Love
TTITLE3=Remember Me
TTITLE4=A Mother's Love
TTITLE5=Don't Be Cruel
TTITLE6=Take It Like A Woman
TTITLE7=Great Balls Of Fire
TTITLE8=Burning The Memory
TTITLE9=The Line Drawn In The Sand
EXTD=ID3G:   2 YEAR: 1997
EXTT0=
EXTT1=
EXTT2=
EXTT3=
EXTT4=
EXTT5=
EXTT6=
EXTT7=
EXTT8=
EXTT9=
PLAYORDER=
